<mxfile host="65bd71144e" pages="1">
    <diagram id="6itaSXMCU1YtvEYhpMld" name="Page-1">
        <mxGraphModel dx="346" dy="451" grid="1" gridSize="10" guides="1" tooltips="1" connect="0" arrows="1" fold="1" page="1" pageScale="1" pageWidth="827" pageHeight="1169" math="0" shadow="0">
            <root>
                <mxCell id="0"/>
                <mxCell id="1" parent="0"/>
                <mxCell id="73" value="" style="group" parent="1" vertex="1" connectable="0">
                    <mxGeometry width="100" height="100" as="geometry"/>
                </mxCell>
                <mxCell id="74" value="" style="shape=image;verticalLabelPosition=bottom;labelBackgroundColor=default;verticalAlign=top;aspect=fixed;imageAspect=0;image=data:image/png,iVBORw0KGgoAAAANSUhEUgAAAGQAAABkCAYAAABw4pVUAAAAAXNSR0IArs4c6QAAAARnQU1BAACxjwv8YQUAAAAJcEhZcwAADsMAAA7DAcdvqGQAAB0YSURBVHhe7Z3bryTXVYerL9W3czxx4uTvQQokEILtmBBAChLihQcCtmyBY2OhhCAQIJ6AYMuB2DFghIIicfmngAc8PnP6Vt1d+b61ap/T54yRwNN9PKP0b6anq+uya+91X2vvqqlOOOGEE0444YQTTjjhhBNOOOGEE0444YQTfiLx/rd/qX3v959vu59PPHrd9xOHf/2zr7f3738YI1gum2oyrqvtrqp+40///Ykdk3jiOv/3bzzfXlxcVk9/+h6971er5bJqmk0w5PJyUU2mk+rpp+5VL7zx/hPJmH73/UTg/W+90O4222o6mVQDZQlD1efTbvmnx55erxqPp1V/OKy+9/LPPpFm7ImQond+7xdaKT+djqv1qqnWaMRTZ7Oqnk2qxYNF9UCNeebT1cX9+9X5+Xk1m06r//rP/64GMKYP1379z//jidGWx15D3nntubZF8jebik8n9Lu22ugw/Nlr+bmrtpumajhps90yql41O5tU49Gwqkd19cNvf61959UvPxEa89hKzt9987l20Ee+IXYrA5ptde9Tk2q9bqrVoqmG9bC69/S9arVaVZvVGoeOEg1gHIz63OeeqR58eBHtjEYj/u1V8/m8unfvrPrK6//0WGvLY9e5d1/FPA2G1RZJn4wxUc0a4tdhmoIhmKzFYg2h6+oZCP/BB/+jklQrGHX+1BmEX1af/exngiF9GKrGTMaTarlYVDVMfEA74/Gw+rU/+bfHkjGPlcn6PuZJZgwwOdAyTNIOM7SDqCtMUuyAjC3/rBtM1m6HddJLeNmgWi9X1QTmjerc57kNmuV3v+Y4zBU7tOlxdfqPBUPeeumL2Hg0Yx8QrYcJyp0tGnPzsBpUD2uIu8WJTyL0XSxWbI/j+IBrh4Mc3uWDSyKzKeavQksGsU+88+qz7Xd/+6cfK8Z84gz55+/8KsZ/CP0hIBTTrLQQuYEhLVphKCtXJkOkHsdetf1qoFZwbsN5Wxx9b1BXQ/bVRFUb2lmtcfK7QYV1q8aTmtxkHL5IpmrGjL4aGDqCOZq099DMf3zjK48FYz4xhvzDG19t3/+Dr10TgS2JvNtuyPcgWmf/b2NDHlLg+ZumIQ/JfWrA/OJBaJXHCsbkLWvO03QtCQLixD3sMH1m+++/8cLNA58APhGGvPnSz7V9zInmBnfBB5O02yD8dCecxzUi6eOv5qshgqojakJ7YIJEH5KhS0VNWPgJGKq5Gw57aAC+CA3ToQ/6g0gie3IF1Pgq85kh12w3+KNqV83xQW+//KX2h3/0K58YY+6UIe++/nz7t698uW0gck9OmF+EY/YoRIbAkDAccZ+dG85z3wBfoYSPiJYk3AgmyAU1yPMa2thgkgxxPd/wd8j+0DTMk9doBsP8dQwxZxlhHtOE9WE4ZpB2DAZUoO/+zs98Iky5M4a8hVb43ScaUjM2SOdtSBAJFExIuj2EDdFVs85rh4MBzluCA1qXwEITBZWDCfUIJ49/GcNMtXIfayM474k2KRUDwuGCM9r40Xd+uf3ey9nvu8KdMOStV541t0Nqy4B7mAmyaj5ub3Y9CEMoSy4RpslETweMRCvVmRzuwgwp/QMIv+2zb7MOCzcjXzGUVcoLhmjVfLFky/CYu4wGaAUaBRPVrBrBqGsYRxDgp4Zp6+WaY/aB4ILIbcU9V/qeO8SdMEQi3oQUyn0S/SFAnH2ENt2SUxNBtW2ESUpTBCDgFWCQTNL8xE/8hL7CIECtmJ7JDMUhr51g7rZoVMH5+SwCi7vGndxx2JNQOO4KxxrjTyLsOmpNpjjqVgcPeVQlNMIvxV+i63xx0xGmYu6rEQwesV9sdOLZaJRRxiSFfYjbbIimgASXzIXwZv1q0lbpXy+q0WRU1ZozvgN0tV1tq/GIMDovuVPcuQhYEyzE1Kab0O3D3+vIyq9RkrkH80V8C52vpXhNW6cEgaYzMZq/+IZJmjxRk5MURG1SDeKjQhr27mN+Me+2DNHvLke5I4Zgn3Wg2HxJOR6rERADqkRkE+qQWXk4YhI9oyc1xjJKmCS+tzCgB/VKLtLTcXtRF23tw3JLZuqaLYhuW/E7tW+7Xsd+zwtTp6Z1CI0yeYSRBg77puzYODpDvv/qc60ZtIOX+AaWRjWalx3aoH9IW126kgzI3CC3kymap5R020gYqrIN4czGLZcUeD8RBUbuYbBgLrKjjS1BQ2MtTIbQJ+dTbHKEOcuLaIe/qzWMsMm87Z3g6AwRxekW566Uqwn6h1uCDQqxheUOJJ2I6aqW1RFayN4NjLO9jwwOwOxs+pHHZJ5aa3MR+kIJyym2bkV5eu88zlvCvBWfu8LRGRIDxK6v9BX9kW4dApGIyRQIpYN1bsPzdq3lErPsAYSC3Ej/jvO2UA3DgUZZ9d1BJDLsHhk6ZmYYuQPDkGGtvob9zRqCEwDQTg+tGJr42U6YOu5J+B2mjxCXwwHrYyNMpblMhM90d4y0dIfvDEdniETQUe90vntmZBglkISm5AYQaMvpUC1NUu66whDf4SyhJjBL9TkMS/VicTkPqdfXqIn77Y8nWQ0W/b395igikkqwnD+I75LbxDzNHeDoDJFgw45giC5KUiQTLcA2r7XTBYS+WhcMSJQ++mw1aAGWPxytixeckh2S5OloLbTUNfkDW7uGaIrbWM+aLy7DzGkq9RWGussH82h7xH137Ya2CGstnaAZMmPDvWVich7awyzjLsv51sSGdxQDH5Uhf/Pi9STQeHJdlgjptTYO9qMjJb+g89+BqFlByOUyc4t9rNerakPElNtNNYJZKhWGB9OU9SnNl1Xkmm+Lj2Ei2b/VjAKzdmchPwpqn2bvrnBUhljFDa8JzZ2vEJuoQyG55BrIdTh2kzSl2e0GH1FjJlSqBu1RosM9IP6uueqFP5FJLVKtGcxbDEjubNvtMVo0h1EKesO3wYRzJ/bDaMv9YQrZtB8ySLngbwhIRn0pEe4LxrlxBzgqQ6SOhI6B5p5AhKJIqhGUecC2qAPnypwgUKcta44Lk8mVyZt2DsgkNW16PguT429hrlGCBM2R8NtIadX5mBqJH2HS1DxLWZ4ckaB/+dSWA8J3acLY7tq+CxyXIYzEuD/EvYOrR0Ykhq4SETIkiKgT34MmJaDowti1dp6PkddtrCwisrtc4o+oBCsMfDA6+IvMMUqV2ZC33FON0LwV5JxL9nUfP3j9+I79qAxpIIRLqaxZYZSqyWRUjacjfMGyirwvbq/04geMcpROpHu30+kOOWdTTTpCDfu6bqI1SQKRtTxbTJTSbiC0JVBoMZFZMsGDwMhGR41AOPch4yeYMnG5SF9kKX+of6Ati48qn2GvPmmpacXMGXKvuac+7C5wVIYonRJYCTdMXS5xnEosZqAIpCbKkNhobGOICqU1YWFChCdyfb8r3ZeCpLgydaCE1EZeQnNoJVirs4QBTl6pFWqm9/TYlj4pCDLP7N/592tY9ld7YNIo7713u6PhaAz5i9/8qbaPgR7U3CJoxGj6hKIMUoc6M3yF+OYJrrGSUEZGmh6VZdDXkQ7xB0ZNrlQkgtLuQ9QBxD2bEsoSdelXrNY682gy6VyK67mK/1hs1hEyh2bRhalE7+2qiwVhcMe8Fu3QMnpv++GpaqBx9LCXGjQe0KaBwZFxNIaYUBUpz7oU32TsJYkTVnu145EE3kLjapKyXSq4UZzM6/ahxMuEoj3++/ACCRmG+VkY3SUMd4WR11VfH7qO+3XH9vt+LBztDpYiQgIZfSGUs4RGRmHfca5m8WMI6aRRiK8Dj7GrEZ196K71gLTSfBTJdqGCxyW0xJrNpmHrg6hcpokakziOiJpwJ0F4F0qM0TQFIQIE+hlVhFAhNIjQ2kQyNIZGonQfIRwMpX8/eO24jv14GuIfBqB2WGZ3j9GUxUChT9GOWL5YYXqMiDoqhD/xMGTkGgiKidIEBWM5JQlOe52E5358EAw2QorqLvu9rytNJtNplEzaqHXRPoxUYCxOmudkWR5mT2AmTIyKQdeXhEEJCSbCMHGO/og4GkPGSJmSK533Raoz7YFcEUInkG7Njlhq1iBQZNJ7NtuEbeY8CjDzts15Fy2Z4bc6ng4LwuDi5DVdjcEEcIW8FxpxmVgKS+6rVROaI4zIAvT7timV0bHM6Ig4GkPW1pb4VnrNwBcMtNhn95mQOTPY4KyvwPExzNGMFbutmdkGEZzAQlKhW9Osg2GjoSV0mIKmSU4ZtVouImxWwo2aZvdmWByfKVnBuD4BgEQmgGDklvQVkNHY5UB5v+XSRxrUbpw/aqrG7Tg2xPRN6Zfae0wchSF/+Vufb0tdynAyOOM2jHAJj8Qe19dEl2FWZIvzLpAxXpzhbZo38VG1JT1WmLNOU6bkO6mhaN9euyX62nfemtZgdtfPAjWrrA8W5jzHxlEYEsyQ1gx0i7QpaQPH3w04HK+EgwLFmZoEFmi+zBEkkg2NSShtbhDPr1nL6kdtyuSRxjiAREe5g7MJVc9m5+G7XItVc2zZZP1rS9LoiseYZ6ENtUJzaeXXzF6kldpVz3zmU0TpPr5wGftF9JDbvP+t482xH4UhIfh2Wc8cqz/ccRPaZxNBEY60g1LdkLnraDU7XlnMieuxgsm384GueTUuWciHa6KksgcjJs2TiMChI+ugyzUeRicStuvJXD8c7CePh8dRGCKK844xM5AM4XM2UAmN6AqJ3Y9mcvh5raGnezRzLiUtTDDyskxilBQaFiaKNjrixn2C2K6Cb/AHyWz9i8tNZajCoC86n0yieiCx1dgQJOCXVeDyQ4FQszR/HuuU+ijoyHZYmNI54ByaA3Ahg9seYfCu+HBb6rFbCYzELETW0oqmRNthYVDkte7XyfsI2xBzJSHHYWq4TqJC8JKQ+niDfchyv2fIyDbWYclMM38jqxGOX2anLnIeCalFRSMvcXY2i/soFFrMEIQnjSFKUkNUU9DTJHRwcP9bxiuR5YvHLakIM3BheCodSnZtOf6KLmxEZv4RhNpfCqov+vB+rrcqYXa5KGpuIOZZ0Baff7evJePfr3MVv3cMHJwhP/rjr7eua1shafoB5zWcSDK3UCMccM5TtzERpf22PhWARpHYIblrtagMHMk3Z1E61zjrnsSLNtQYtpXgjumaJqEzN6JzJf0EYo7Pz5SM0J4hoa9ma4I/8XrrYU4zRxsKgokh/TOaW3caJlSOmDqGSe8dKWM/OENWnWbYWz9KuxGMZfAihfqF5WpZTWezMEM3kZLLKf4bSV6YMzBfLKJR5y/2qWHpRWKJRZcECjUiNJLrLbM4z34FGoiHd8DtcPsm8k4+p3I1R3NEHJwhsQBNIN3KKoJa9RjIkv3l4Rsj1IRO24miZFSBmlFK3putBE4NK4uf+1aNaWvlfLoNyg2IPhg5E4gzxz+oRT20wPpWaGaYQEwR2b0lft3zwIhJk8S1Vou3aEZfreFahcbgQ/PrDKRLmTb8zgky+3Fw0gUO3mrOddxsNupWQMJYcnedVCd411Al9q4rh4uzLXBe5CGlKu3zyWjMq/OkoVl/mKWbIbCELnCSat8v+ICowYCMyOVGeUwmiZjXORIOzpAkvlES0q1mEBGVgqK+Qie5I1mUaUpqr5fRUvJDH5PXSwQjpXCs+hiOu6/X07ZzBp90zBKJb+nPuTEg9sv4QvP9bF2ieq+nnsoqgO2Xxdzr1YY+pAikL8r20mTy4Tp9jfc9x9weA12XD4cIC+m0DttS+8V80XkFa0bacHISBqtJGgyx8ZgRyxgxN1LnNSukXMaaN0ShEUI48WQ5PUr1mhYnq7qSisejDYgWCx4sz2CuSqneNiKX4ESvCRYiJForhSXW8HaI8gjnRP7C+bY97iK7qBgoacmb6q++8Xm/DoqDMuTtV34+OpgEICLqFgm41L+GONtbiwYK9n2Ijr/mWgMBNaJUX/MVGakIt+FcuZLr8h+JXlAWNFxeEupKSDCFqMI+BsH9EdfkdQ3R3VXUB9aYOoXE46WWdjbN1Y3HwEEZogkq1VsfzrkkKtKCZcXWeXIJPYypV8cfA5UY/tVEyQDnMoJQg6rGVHhKH+drZdhQ1bxihWmhMe5iaJ2VWpmtOcqalOWXJiaeyqKFST2KEFYtDNJz7qpZRyk+KifBIJjIfp8I1hepZVGWZn8tIznHUHoBk/q0c7UA/IA4KENGXRInXK1hCKrEPqQZ7BuNxgxoL9xknygOWw2z9hR+g27ajuGr2lQmlG7D88tyH1srNbD8dQt7TXivCI1p2/vleuSGbTUDlE4BfaCR27FwWIYghTHzByZIZpQ62PZ7hLpb2lDKXbjg/ITSfUUqz4UY4YO6NlzSI/FlnDmExOin9ehKMYk5jB/N6mrhqvjCkM6JS2wFxZX1KCp94RgE73NetNBpwJWZ2jmTyIef/VAdtFpTRaJrlaClLy7e8PG6s27C7JA4KEMc2b79HWP3naOObTofi+bAdciZDluzEYAR9WQSjrM8S5ImK31MKZHfXiPlPaeuXOHb+1iHGk9nMHJbzeeXwQQnuRQGBcBv4fe1FqX0Kyw30AnHNVKEIt/i2L/84Vdzx4FwUIZowyeos2thXb1ulLOzDEHH1ZLS89YoCaYYYbl63YhGk7TzPORWB+3zgxLeCaIgCRdHXYl2Iwzlt1riZlSPO82QOWH9OFZCV82nsVVOXuXcu32MPnEsNBkt0LfVE5exJlnUDKvTCpB90IR5ntFWXO9eneQBcTCG+GadWKHhICGQK80LYorUQTJ4CRyLqAmB06DRCU0C16oNJTILrYn6lA4+F2DrpOMS6cA+AwRnGoNY5CcyIuZQvKxjSGTpMon29Eb+LrlILKRjQwYZBsernNgfz9Cjzak9CIlM4Y/OvocGydhgJAkusnVQHIwhOlMjFSOa8eiaGQtC3mm3UsOQ1vKDEh4rPyBYSi3D1lbvMbEgE8lrM2hkpqQWMyZK5VZ/IaJ2pg/hZzBRKu+hWW6IwjYkgg9n3GVqVwd/GxYBbvg9sOjK9IfCwRiixMzG05hL0IwwtNjvSkEXSmddSO0JoYQDVnnNMwxnkzkqCh4XCU4Cj9EinbyPufv8n+bDj9IuddznzXxDxG6l+dMnSEjn7GE+zt4MfbeCiWiAmmpobl9lku9IiSCDjxXhmDDjkOZ0qs+zr3GPfjySZ78iZ6JD8dARGmTt65A4GEPE3ARsDyZmRioxh5FcCpPiXEdxnlHWgCn78xNlM54NROqln8TQ1keIClH3nbEP6Vg8lJCxJAjm64PK5FSA0y1OauKclFKbNV0uHdU8hb/pmrxeM5yMu4LZfafRJpAy1qN//Y0v7J30aDgoQ3wNX5QwMFGWMEzCIGUMOuZGhulfHLmmxMinPP6sH4lJKELKlEKu1EYA59K9LquuLifCuVbDNHFIa22VdzKDdhBWXyKRacdH3Dxff2J7Ecbm7Rm4WuQb6fRd6T/KWjKZblLLaDiR9mjTSrAa6bnDgdqTZZrp0HJKdPMgOFhTRh9XTl1JY2BR1QXxPiwly/1QJNdZpT02M9dk6SfUgOySErtnCuK6zEuEqxn1Ld1ub475w4TAsGzPiSXyHATDCE6tlJiR00DYskSpaG1ZGiQjfJfjgmgrK172pEN3MzWxzKMoEBZPywK+Q+AgDHnzxS+0vnMqinoMqhAKuY9PEleTo5myHJLmR6aVqdoUXP4g8SUvkVC2VWpInM6xJBGtRDteqOmZX1zEiwhErCjhGPTnnLZ6ipxEE6Z5VEE9FiYTyfERutksXzrgA55WiW1Uv6L/chaxaI1Az6tJxwDNpsfU3EPhIAyxvhTraelgSKpTU2oKx3zUwAEaBvfQoHx0OQciAwxzDUtTWjMnQIxzzpxvmeKiBoMAeWEgEO9i5Pp4BAGGtmTXKyInW5Q5wtYMVg0yNDmGrvGcO1GRpRzNms+8x325RI2zXhY+isBALbIv5kYy3lKP+ZEiYpicN9H/KRh5z0PgIAwpIaJRlI+rldexapONXoTmxIFLGCVLB2sl18w6tIpry1IfkYP+vw20LCWKxdXdttItQ12ccHZO1t5pyMwaGgLkPTOxzPP9dr5eQXG1fCSrV/YqYbRYKCbf414ym+93f/cwc+wHYYhL/hlRSKUDjVCxwOSJkSldSlQ8hgChdpim1kSrRxDAMQeV1ii7xCnBD7N6By0DXakulXoEB761VFx8uKxqHO94Wod9L1B71BYf8lmuuUbrxrVK+K48jUUb/jGCs+9RTGTDlnO+JBNGH31zGVAe6LQJ86w5awi3DVAGt0suHxMHYUhmvvqDoGCouO/UdXTLS1+PlMSTZVd1K+D+8uYEiVlWMCqtu64SnKWL2ERCXWsrU5BKqDMaWjHWSaOJXfIpnDvR11gdMGCQ6MJ+LQlXxYcPFrHXuZT9KVkFw+jpBhCKMFudrzChNKfJfMn8a/SRieTHwUEYYoXV2k6Gp+xQGyC+NR+EWaGj31ZtkUSoa8auNdbKa6tlUv6WaDCGc1wuJFnUBJ+mCj6E2qT2xEK4jrnBb/4xx/DFMWqFN3VJke9czOpBOuJ4E6mN0c8R5+hXZJK+Kt7jxf6oWfmHcVi99u0RPRLWyJXYF4/ZcZ0PsS4RnHjcuhOaR8UjM+TNF78Yr3xVuiV21IogoiUSEeagY5CvySjmKd8SZ9XUDDjPzWglo5a4BEjUtPMwpmiXDEn7dgXvo8YpyYU25dv3qljkLNCkhv0HqY1quG0QoEQyaWmHfnLMPgc4wV5qOmXWsll1/Uothj8HwSMzRLt87TMIciNMpOOdqXE7PvxxIGqTJkH1L3UjcxA1Rck1KgpiGOpKAdFRNpJIGlMTapfr0HuJJmFG9QSzkcJQLjMMXi/n2QF1EGL6P/FYBjHUNV9S2g1jM2HNfnq/YBTXGZhcYt4Ce0KmtisAarYM2RLIvPvNZ8utPzYemSHOpgagjktGHaAvw6fbsTsEWWdu1MJA1PrZbBamJcCgzAWMvhrf1AA1DHMte4RJctAOk+toHkK4SgRN0vwh5eYaPopgVGTbrhv2vz7C6odfiuIi36GVaLH+RaY7mRbt0b7teYuQfTWHIEJEFMZH7drh2GVQvHnbsSI8Mi01rY0VK2Xd2KPgkVuYjHIwztqJ8nafKH9wQG1Qkuy2i5vjBcbYZKMUZ93UpCuZZoAbQ2Z+OlBNYbxTi4ttwzeHijKXfT1riGkJgthWnjvAZ9VoQyFYeR1UPXX6tbtfh6n7ul0KjQQXCsoYHxSPQQDNIU2HpkVkCYpvuspNHhGPzBA7aP1JaTFbNwdRK8J0cIxgFnNAmIiZkDa7WIkIYWLJDwNRWmGKZ+48DmWcmIrqL3vjTT9scGqgHpttY4poL2pkXGtSSmpa7QZWcDFf5B6akrbB5EAwV7Qbdlt6mchoBMEXak6Izlz2YztqQYTs3Ejz5Vj6qKb7ZzURHP0p/k4TJXM8FlPOjH+KCTxEgvjIDFHaS9hbEFEUg1PdGdKVhHuKGmK04gJnM/Q0EdkN85JYQMAFXidzlFhrUjdAO5NZSubDZqL0I8v9BhRzHLCVggfzZSwJUmtK4VL4qg+1wv36r9KGWnc1X2P4DOFT4/aR5/rS5oeP/f/xSAx577VfbLXJMXD6sqRT8TokiKADNr6P1YdIv50Np62dR4WUbHMEba+rF51JdLmP0FStuPb2C5h1sML7eE+lPmw8dj2OqZlwfd29+8o+xcv6uana16MvQwRI1xT5CaMPxsMcC6EfPLiMvis89y/YVktDeyE6wmLVIXpkWwoCuy9gshv2x7G+/dKXikR8LDwSQy671+BFhttBohv5xH8PAZQ8NcNPZL6e6o8OQUAIKizPWwQUV36lgxlzaFOB7XUmwgkqRCLua95gm0LCuo5qNLxebBH2P1Y0Apy3TAu/wX4jP9uQEbnCMduJkBrGecymXfRXUBaFK3AZ3p9wwgknnHDCCSeccMIJJ5xwwgknnHDCTwKq6seXcD/C0r4y1gAAAABJRU5ErkJggg==;" parent="73" vertex="1">
                    <mxGeometry width="100" height="100" as="geometry"/>
                </mxCell>
                <mxCell id="75" value="&lt;font data-font-src=&quot;https://fonts.googleapis.com/css?family=Noto+Serif+JP&quot; face=&quot;Noto Serif JP&quot;&gt;角&lt;/font&gt;" style="text;html=1;strokeColor=none;fillColor=none;align=center;verticalAlign=middle;whiteSpace=wrap;rounded=0;fontSize=42;" parent="73" vertex="1">
                    <mxGeometry width="100" height="100" as="geometry"/>
                </mxCell>
            </root>
        </mxGraphModel>
    </diagram>
</mxfile>